<svg viewBox="0 0 12 12" xmlns="http://www.w3.org/2000/svg">
  <path d="M4.70703 8.70679L10.707 2.70679C10.8945 2.51926 10.9998 2.26495 10.9998 1.99979C10.9998 1.73462 10.8945 1.48031 10.707 1.29279L9.70703 0.292786C9.5195 0.105315 9.26519 0 9.00003 0C8.73487 0 8.48056 0.105315 8.29303 0.292786L2.29303 6.29279C2.21678 6.36877 2.15329 6.45657 2.10503 6.55279L1.29303 9.70679L4.44703 8.89979C4.54361 8.85 4.63142 8.78482 4.70703 8.70679Z" />
  <path d="M11.5 11H0.5C0.367392 11 0.240215 11.0527 0.146447 11.1464C0.0526784 11.2402 0 11.3674 0 11.5C0 11.6326 0.0526784 11.7598 0.146447 11.8536C0.240215 11.9473 0.367392 12 0.5 12H11.5C11.6326 12 11.7598 11.9473 11.8536 11.8536C11.9473 11.7598 12 11.6326 12 11.5C12 11.3674 11.9473 11.2402 11.8536 11.1464C11.7598 11.0527 11.6326 11 11.5 11Z" />
</svg>
