<svg viewBox="0 0 24 24" xmlns="http://www.w3.org/2000/svg">
  <path fill-rule="evenodd" clip-rule="evenodd" d="M2 5.25C2 4.69772 2.44772 4.25 3 4.25H21C21.5523 4.25 22 4.69772 22 5.25C22 5.80228 21.5523 6.25 21 6.25H3C2.44772 6.25 2 5.80228 2 5.25ZM2 12C2 11.4477 2.44772 11 3 11H21C21.5523 11 22 11.4477 22 12C22 12.5523 21.5523 13 21 13H3C2.44772 13 2 12.5523 2 12ZM3 17.75C2.44772 17.75 2 18.1977 2 18.75C2 19.3023 2.44772 19.75 3 19.75H21C21.5523 19.75 22 19.3023 22 18.75C22 18.1977 21.5523 17.75 21 17.75H3Z" />
</svg>
