<svg viewBox="0 0 12 12" xmlns="http://www.w3.org/2000/svg">
  <path d="M11.954 4.29115C11.9141 4.20433 11.8501 4.13077 11.7696 4.0792C11.6891 4.02762 11.5956 4.00019 11.5 4.00015H6.14101L6.98501 0.621148C7.01178 0.512093 7.00106 0.397202 6.95458 0.294982C6.90809 0.192762 6.82856 0.109165 6.72877 0.057657C6.62899 0.00614906 6.51477 -0.0102707 6.40452 0.0110427C6.29427 0.0323561 6.19441 0.0901618 6.12101 0.175148L0.121011 7.17515C0.0589371 7.24772 0.0189447 7.33655 0.00576298 7.43113C-0.00741872 7.52572 0.00676167 7.6221 0.0466271 7.70887C0.0864926 7.79565 0.150376 7.8692 0.230721 7.92082C0.311066 7.97243 0.404513 7.99996 0.500011 8.00015H5.85901L5.01501 11.3791C4.98785 11.4884 4.99835 11.6036 5.04481 11.7061C5.09127 11.8087 5.17097 11.8925 5.27101 11.9441C5.34165 11.9812 5.42026 12.0004 5.50001 12.0001C5.57206 12 5.64323 11.9843 5.70865 11.9541C5.77406 11.9239 5.83218 11.8799 5.87901 11.8251L11.879 4.82515C11.9412 4.75261 11.9814 4.66377 11.9947 4.56913C12.008 4.47448 11.9939 4.37802 11.954 4.29115Z" />
</svg>
