<svg viewBox="0 0 12 12" xmlns="http://www.w3.org/2000/svg">
<path fill-rule="evenodd" clip-rule="evenodd" d="M5.29289 6.70711C5.48043 6.89464 5.73478 7 6 7C6.26522 7 6.51957 6.89464 6.70711 6.70711C6.89464 6.51957 7 6.26522 7 6V1C7 0.734784 6.89464 0.48043 6.70711 0.292893C6.51957 0.105357 6.26522 0 6 0C5.73478 0 5.48043 0.105357 5.29289 0.292893C5.10536 0.48043 5 0.734784 5 1V6C5 6.26522 5.10536 6.51957 5.29289 6.70711ZM2.67727 10.9984C3.66183 11.6527 4.81789 12.0012 6 12C7.18246 12.002 8.33907 11.6541 9.32424 11.0001C10.3094 10.3461 11.0791 9.41537 11.5364 8.32494C11.9938 7.2345 12.1183 6.03314 11.8944 4.87208C11.6705 3.71102 11.1081 2.64215 10.278 1.80001C10.1876 1.70014 10.0779 1.61957 9.95558 1.56314C9.83324 1.50671 9.70077 1.47558 9.5661 1.47162C9.43144 1.46766 9.29737 1.49095 9.17193 1.5401C9.04649 1.58924 8.93227 1.66323 8.83614 1.75761C8.74 1.85199 8.66393 1.96483 8.61249 2.08934C8.56104 2.21385 8.53529 2.34748 8.53677 2.48219C8.53825 2.6169 8.56694 2.74993 8.62111 2.87328C8.67528 2.99663 8.75382 3.10776 8.852 3.20001C9.40528 3.76183 9.78017 4.47464 9.92956 5.24888C10.0789 6.02311 9.99617 6.82423 9.69164 7.55157C9.3871 8.2789 8.87438 8.9 8.21791 9.33682C7.56145 9.77365 6.79052 10.0067 6.002 10.0067C5.21349 10.0067 4.44256 9.77365 3.78609 9.33682C3.12963 8.9 2.61691 8.2789 2.31237 7.55157C2.00783 6.82423 1.92506 6.02311 2.07445 5.24888C2.22383 4.47464 2.59872 3.76183 3.152 3.20001C3.32532 3.00859 3.41787 2.75755 3.41028 2.49943C3.40269 2.24132 3.29555 1.99615 3.11128 1.81525C2.92702 1.63434 2.67992 1.53173 2.42171 1.52889C2.1635 1.52605 1.9142 1.6232 1.726 1.80001C0.896174 2.6419 0.333857 3.71041 0.109798 4.8711C-0.114261 6.03179 0.00994521 7.23282 0.466791 8.32309C0.923637 9.41336 1.69272 10.3442 2.67727 10.9984Z" />
</svg>
