<svg viewBox="0 0 12 12" xmlns="http://www.w3.org/2000/svg">
  <path d="M5.72324 3.5544H5.00024V5.77965H5.52524C5.91316 5.80826 6.29947 5.70607 6.62249 5.4894C6.7445 5.38775 6.84087 5.25881 6.9038 5.11301C6.96673 4.96722 6.99446 4.80865 6.98474 4.65015C6.99722 4.49868 6.97635 4.34633 6.92361 4.20379C6.87088 4.06126 6.78755 3.93201 6.67949 3.82515C6.40356 3.62307 6.06416 3.52697 5.72324 3.5544Z" />
  <path d="M11.25 0H0.75C0.551088 0 0.360322 0.0790176 0.21967 0.21967C0.0790176 0.360322 0 0.551088 0 0.75L0 11.25C0 11.4489 0.0790176 11.6397 0.21967 11.7803C0.360322 11.921 0.551088 12 0.75 12H11.25C11.4489 12 11.6397 11.921 11.7803 11.7803C11.921 11.6397 12 11.4489 12 11.25V0.75C12 0.551088 11.921 0.360322 11.7803 0.21967C11.6397 0.0790176 11.4489 0 11.25 0V0ZM7.833 6.441C7.21539 6.9043 6.45245 7.13148 5.682 7.0815H5.00025V9.75H3.411V2.25H5.805C6.54352 2.19851 7.27688 2.40619 7.87875 2.83725C8.12326 3.05518 8.31445 3.32634 8.43759 3.62984C8.56073 3.93334 8.61254 4.26107 8.589 4.58775C8.61147 4.93373 8.5551 5.2803 8.42414 5.60132C8.29318 5.92235 8.09106 6.20945 7.833 6.441Z" />
</svg>
