<svg viewBox="0 0 12 12" xmlns="http://www.w3.org/2000/svg">
  <path d="M2.66658 1.01118C3.65328 0.351894 4.81331 0 6 0C7.59081 0.00158843 9.11602 0.63424 10.2409 1.75911C11.3658 2.88399 11.9984 4.40919 12 6C12 7.18669 11.6481 8.34673 10.9888 9.33342C10.3295 10.3201 9.39246 11.0892 8.2961 11.5433C7.19975 11.9974 5.99335 12.1162 4.82946 11.8847C3.66558 11.6532 2.59648 11.0818 1.75736 10.2426C0.918247 9.40353 0.346802 8.33443 0.115291 7.17054C-0.11622 6.00666 0.00259972 4.80026 0.456726 3.7039C0.910851 2.60754 1.67989 1.67047 2.66658 1.01118ZM3.77772 9.32588C4.43552 9.7654 5.20888 10 6 10C7.06087 10 8.07828 9.57857 8.82843 8.82843C9.57858 8.07828 10 7.06087 10 6C10 5.20887 9.76541 4.43552 9.32588 3.77772C8.88636 3.11992 8.26164 2.60723 7.53074 2.30448C6.79983 2.00173 5.99557 1.92252 5.21964 2.07686C4.44372 2.2312 3.73099 2.61216 3.17158 3.17157C2.61217 3.73098 2.2312 4.44371 2.07686 5.21964C1.92252 5.99556 2.00173 6.79983 2.30448 7.53073C2.60724 8.26164 3.11993 8.88635 3.77772 9.32588ZM8.19165 3.53733C8.2524 3.56253 8.30758 3.59948 8.35402 3.64604C8.40058 3.69248 8.43753 3.74766 8.46273 3.80841C8.48794 3.86915 8.50091 3.93427 8.50091 4.00004C8.50091 4.06581 8.48794 4.13093 8.46273 4.19167C8.43753 4.25242 8.40058 4.30759 8.35402 4.35404L6.70702 6.00004L8.35402 7.64604C8.40051 7.69253 8.43739 7.74772 8.46254 7.80846C8.4877 7.86919 8.50065 7.9343 8.50065 8.00004C8.50065 8.06578 8.4877 8.13088 8.46254 8.19162C8.43739 8.25236 8.40051 8.30755 8.35402 8.35404C8.30753 8.40053 8.25234 8.4374 8.1916 8.46256C8.13087 8.48772 8.06576 8.50067 8.00002 8.50067C7.93428 8.50067 7.86918 8.48772 7.80844 8.46256C7.7477 8.4374 7.69251 8.40053 7.64602 8.35404L6.00002 6.70704L4.35402 8.35404C4.26013 8.44793 4.1328 8.50067 4.00002 8.50067C3.86725 8.50067 3.73991 8.44793 3.64602 8.35404C3.55213 8.26015 3.49939 8.13281 3.49939 8.00004C3.49939 7.86726 3.55213 7.73993 3.64602 7.64604L5.29302 6.00004L3.64602 4.35404C3.55213 4.26015 3.49939 4.13281 3.49939 4.00004C3.49939 3.86726 3.55213 3.73993 3.64602 3.64604C3.73991 3.55215 3.86725 3.49941 4.00002 3.49941C4.1328 3.49941 4.26013 3.55215 4.35402 3.64604L6.00002 5.29304L7.64602 3.64604C7.69247 3.59948 7.74764 3.56253 7.80839 3.53733C7.86913 3.51212 7.93425 3.49915 8.00002 3.49915C8.06579 3.49915 8.13091 3.51212 8.19165 3.53733Z" />
</svg>
