<svg viewBox="0 0 12 12" xmlns="http://www.w3.org/2000/svg">
  <path d="M11.707 10.2932L9.16698 7.75317C9.85308 6.71659 10.1297 5.46213 9.94332 4.23312C9.7569 3.00411 9.12067 1.88813 8.15805 1.10163C7.19542 0.315138 5.975 -0.0858182 4.73349 -0.0234681C3.49199 0.038882 2.31788 0.560095 1.4389 1.43908C0.559912 2.31806 0.0386989 3.49217 -0.0236512 4.73368C-0.0860013 5.97518 0.314955 7.1956 1.10145 8.15823C1.88795 9.12086 3.00393 9.75708 4.23294 9.9435C5.46195 10.1299 6.7164 9.85326 7.75298 9.16717L10.293 11.7072C10.4816 11.8893 10.7342 11.9901 10.9964 11.9878C11.2586 11.9856 11.5094 11.8804 11.6948 11.695C11.8802 11.5096 11.9854 11.2588 11.9877 10.9966C11.9899 10.7344 11.8891 10.4818 11.707 10.2932ZM1.99998 5.00017C1.99998 4.40682 2.17593 3.8268 2.50558 3.33346C2.83522 2.84011 3.30376 2.45559 3.85193 2.22853C4.40011 2.00147 5.00331 1.94206 5.58526 2.05781C6.1672 2.17357 6.70175 2.45929 7.1213 2.87885C7.54086 3.2984 7.82658 3.83295 7.94234 4.4149C8.0581 4.99684 7.99869 5.60004 7.77162 6.14822C7.54456 6.6964 7.16004 7.16493 6.6667 7.49458C6.17335 7.82422 5.59333 8.00017 4.99998 8.00017C4.20433 8.00017 3.44127 7.6841 2.87866 7.12149C2.31605 6.55888 1.99998 5.79582 1.99998 5.00017Z" />
</svg>
