<svg viewBox="0 0 16 16" xmlns="http://www.w3.org/2000/svg">
  <path d="M1.0981 7.70921C1.58786 7.06702 2.49134 6.00473 3.6944 5.10683C4.89923 4.2076 6.36803 3.5 8.00002 3.5C9.6075 3.5 11.071 4.2062 12.2797 5.10628C13.486 6.00453 14.3999 7.06745 14.8969 7.7107L14.898 7.71218C14.9621 7.79445 14.9968 7.89573 14.9968 8C14.9968 8.10427 14.9621 8.20555 14.898 8.28782L14.8969 8.2893C14.3999 8.93255 13.486 9.99547 12.2797 10.8937C11.071 11.7938 9.6075 12.5 8.00002 12.5C6.39278 12.5 4.928 11.7923 3.71801 10.8907C2.51057 9.99101 1.59592 8.92704 1.10021 8.28534L1.10021 8.28533L1.09888 8.28362C1.03513 8.20183 1.00035 8.10119 1 7.9975C0.999653 7.8938 1.03375 7.79292 1.09695 7.71071L1.0981 7.70921ZM8.00002 2.5C6.07502 2.5 4.39931 3.3329 3.09627 4.30542C1.79191 5.27893 0.824358 6.41919 0.303491 7.10208C0.105654 7.35983 -0.00108845 7.67594 8.36886e-06 8.00087C0.00110503 8.32576 0.10995 8.6411 0.309471 8.89749C0.835918 9.57888 1.81375 10.7189 3.12053 11.6926C4.42529 12.6647 6.09727 13.5 8.00002 13.5C9.90254 13.5 11.5731 12.6667 12.877 11.6958C14.1829 10.7233 15.1601 9.58415 15.6877 8.90133C15.8881 8.64361 15.9968 8.32646 15.9968 8C15.9968 7.67354 15.8881 7.35639 15.6877 7.09867C15.1601 6.41585 14.1829 5.27667 12.877 4.30422C11.5731 3.3333 9.90254 2.5 8.00002 2.5ZM5.5 8C5.5 6.61929 6.61929 5.5 8 5.5C9.38071 5.5 10.5 6.61929 10.5 8C10.5 9.38071 9.38071 10.5 8 10.5C6.61929 10.5 5.5 9.38071 5.5 8ZM8 4.5C6.067 4.5 4.5 6.067 4.5 8C4.5 9.933 6.067 11.5 8 11.5C9.933 11.5 11.5 9.933 11.5 8C11.5 6.067 9.933 4.5 8 4.5Z" />
</svg>
