<svg viewBox="0 0 143 40" fill="none" xmlns="http://www.w3.org/2000/svg">
<path d="M139.275 5.94147V5.8479H140.632V5.94147H140.023V7.62567H139.883V5.94147H139.275Z" fill="#626E73"/>
<path d="M140.772 5.8479H140.912L141.614 7.48532L142.316 5.8479H142.456V7.62567H142.363V5.98825L141.661 7.62567H141.567L140.866 5.98825V7.62567H140.772V5.8479Z" fill="#626E73"/>
<path d="M26.3855 5.8479H27.6019V25.6841H26.3855V5.8479Z" fill="#357764"/>
<path d="M32.5609 5.8479H34.1048L46.6428 24.0467H46.6895V5.8479H47.9059V25.6841H46.4556L33.8241 7.34497H33.7773V25.6841H32.5609V5.8479Z" fill="#357764"/>
<path d="M50.6202 15.7663C50.6202 14.316 50.8541 12.9593 51.2751 11.6962C51.6962 10.433 52.3044 9.31019 53.0997 8.37452C53.895 7.43885 54.8775 6.69031 56.0471 6.17569C57.2167 5.66107 58.5266 5.38037 60.0237 5.38037C61.1933 5.38037 62.1757 5.52072 63.0646 5.84821C63.9067 6.17569 64.6552 6.54996 65.2166 6.97101C65.778 7.43885 66.2927 7.90668 66.6669 8.46809C67.0412 8.9827 67.3219 9.49732 67.509 9.96516C67.6962 10.433 67.8365 10.854 67.9301 11.1815C68.0237 11.509 68.0237 11.6962 68.0237 11.7429H66.8073C66.6669 10.9008 66.3862 10.1523 66.012 9.49732C65.5909 8.84235 65.0763 8.28095 64.4681 7.81312C63.8599 7.34528 63.1582 7.0178 62.4096 6.73709C61.6611 6.50318 60.8658 6.36283 60.0237 6.36283C58.7137 6.36283 57.5909 6.59674 56.5617 7.11136C55.5325 7.62598 54.6903 8.28095 53.9886 9.12305C53.2868 9.96516 52.7254 10.9476 52.398 12.0704C52.0237 13.1932 51.8366 14.4096 51.8366 15.6728C51.8366 16.9359 52.0237 18.1523 52.398 19.2751C52.7722 20.3979 53.2868 21.3803 53.9886 22.2224C54.6903 23.0646 55.5325 23.7195 56.5617 24.2341C57.5909 24.7488 58.7137 24.9827 60.0237 24.9827C61.0061 24.9827 61.895 24.7955 62.7371 24.3745C63.5792 24.0002 64.3278 23.4388 64.9359 22.7839C65.5441 22.1289 66.0588 21.3803 66.433 20.4915C66.8073 19.6494 67.0412 18.7605 67.088 17.8248H68.3044C68.2108 18.9944 67.8833 20.1172 67.4155 21.0996C66.9476 22.0821 66.3395 22.971 65.5909 23.6727C64.8424 24.4213 64.0003 24.9827 63.0646 25.4037C62.0822 25.8248 61.0529 26.0119 59.9769 26.0119C58.4798 26.0119 57.1699 25.7312 56.0003 25.2166C54.8307 24.702 53.8482 23.9534 53.0529 23.0178C52.2576 22.0821 51.6494 20.9593 51.2284 19.6961C50.8541 18.5265 50.6202 17.1698 50.6202 15.7663Z" fill="#357764"/>
<path d="M72.1402 5.8479V17.7309C72.1402 18.1052 72.1402 18.573 72.187 19.0876C72.2338 19.6023 72.3273 20.1169 72.4677 20.6783C72.608 21.2397 72.8419 21.7543 73.0759 22.2689C73.3566 22.7835 73.7308 23.2514 74.1519 23.6724C74.6197 24.0935 75.1811 24.421 75.8829 24.6549C76.5378 24.8888 77.38 25.0292 78.3624 25.0292C79.5788 25.0292 80.608 24.842 81.4501 24.5145C82.2922 24.1871 82.9472 23.6724 83.4618 23.0642C83.9764 22.4093 84.3507 21.6607 84.5378 20.7251C84.7718 19.8362 84.8653 18.8069 84.8653 17.6841V5.8479H86.0817V17.7309C86.0817 18.9005 85.9413 20.0233 85.7074 21.0526C85.4735 22.0818 85.0525 22.9707 84.4443 23.7192C83.8361 24.4678 83.0408 25.0759 82.0583 25.497C81.0759 25.918 79.8127 26.152 78.3624 26.152C77.1928 26.152 76.2104 26.0116 75.3683 25.7309C74.5262 25.4502 73.8244 25.0292 73.3098 24.5613C72.7484 24.0935 72.3273 23.5321 71.9998 22.9239C71.6724 22.3157 71.4384 21.7075 71.2981 21.0993C71.111 20.4911 71.0174 19.883 70.9706 19.2748C70.9238 18.7134 70.9238 18.1988 70.9238 17.7309V5.8479H72.1402Z" fill="#357764"/>
<path d="M89.5905 5.8479H97.5437C98.7133 5.8479 99.6957 5.98825 100.491 6.26895C101.286 6.54965 101.941 6.97071 102.409 7.43854C102.877 7.90638 103.251 8.46778 103.438 9.07597C103.672 9.68415 103.766 10.3391 103.766 10.9473C103.766 11.4619 103.672 11.9765 103.485 12.4912C103.298 12.959 103.017 13.3801 102.69 13.7543C102.362 14.1286 101.941 14.4561 101.474 14.69C101.006 14.9239 100.491 15.111 99.8829 15.1578L99.9297 15.2046C100.07 15.2046 100.351 15.2514 100.865 15.3917C101.333 15.5321 101.848 15.766 102.362 16.1403C102.877 16.5146 103.345 16.9824 103.766 17.6374C104.187 18.2923 104.374 19.0876 104.374 20.1169C104.374 21.0058 104.187 21.8011 103.859 22.5028C103.532 23.2046 103.064 23.766 102.456 24.2338C101.848 24.7017 101.146 25.0759 100.257 25.3099C99.415 25.5438 98.4794 25.6841 97.4033 25.6841H89.4501V5.8479H89.5905ZM97.5437 14.8303C99.2279 14.8303 100.491 14.4561 101.333 13.7075C102.175 12.959 102.596 11.9765 102.596 10.7602C102.596 10.0584 102.456 9.45023 102.175 8.93562C101.895 8.421 101.52 8.04673 101.052 7.71924C100.585 7.39176 100.07 7.20462 99.4618 7.06427C98.8536 6.92392 98.2454 6.87714 97.5437 6.87714H90.8069V14.8303H97.5437ZM97.5437 24.6081C99.3215 24.6081 100.725 24.2338 101.707 23.4853C102.69 22.7368 103.205 21.614 103.205 20.1169C103.205 19.2748 103.017 18.573 102.69 18.0116C102.316 17.4502 101.895 17.0292 101.333 16.7017C100.772 16.3742 100.164 16.1871 99.5086 16.0467C98.8536 15.9064 98.1519 15.8596 97.5437 15.8596H90.8069V24.5613H97.5437V24.6081Z" fill="#357764"/>
<path d="M107.087 5.8479H120.421V6.92392H108.304V14.8771H119.672V15.9064H108.304V24.6081H120.561V25.6841H107.087V5.8479Z" fill="#626E73"/>
<path d="M122.339 5.8479H123.743L130.058 14.5496L136.468 5.8479H137.871L130.854 15.4853L138.246 25.6841H136.795L130.058 16.3742L123.322 25.6373H121.871L129.31 15.4385L122.339 5.8479Z" fill="#626E73"/>
<path d="M4.30409 11.2745H0.0467835L0 11.2277C0 11.1809 0.0467835 11.1809 0.0467835 11.1809H4.30409C4.35087 11.1809 4.35087 11.2277 4.35087 11.2277C4.35087 11.2277 4.35087 11.2745 4.30409 11.2745Z" fill="#626E73"/>
<path d="M22.3621 11.2745H18.1048C18.058 11.2745 18.058 11.2277 18.058 11.2277C18.058 11.1809 18.1048 11.1809 18.1048 11.1809H22.3621C22.4089 11.1809 22.4089 11.2277 22.4089 11.2277C22.4557 11.2277 22.4089 11.2745 22.3621 11.2745Z" fill="#626E73"/>
<path d="M11.2746 0.0467835V4.30409C11.2746 4.35087 11.2278 4.35087 11.2278 4.35087C11.181 4.35087 11.181 4.30409 11.181 4.30409V0.0467835C11.181 0.0467835 11.181 0 11.2278 0L11.2746 0.0467835Z" fill="#626E73"/>
<path d="M3.36832 3.27494L6.36246 6.26909C6.36246 6.26909 6.36246 6.31587 6.36246 6.36266C6.36246 6.40944 6.31568 6.36266 6.2689 6.36266L3.27475 3.36851C3.27475 3.36851 3.27475 3.32173 3.27475 3.27494C3.27475 3.22816 3.32153 3.27494 3.36832 3.27494Z" fill="#626E73"/>
<path d="M19.135 3.36847L16.1408 6.36262C16.1408 6.36262 16.094 6.36262 16.0472 6.36262C16.0472 6.36262 16.0472 6.31583 16.0472 6.26905L19.0882 3.2749C19.0882 3.2749 19.135 3.2749 19.1817 3.2749C19.1817 3.32169 19.1817 3.32169 19.135 3.36847Z" fill="#626E73"/>
<path d="M11.1349 15.3447H11.0414V21.0055H11.1349V15.3447Z" fill="#357764"/>
<path d="M12.211 14.8769C12.0238 15.1108 11.3221 15.6722 11.2753 15.6722C12.1174 11.9295 10.0121 9.87106 10.0121 9.87106C11.4624 12.1635 11.3221 14.5026 11.1349 15.7658C10.5735 15.8126 9.96535 15.7658 9.40395 15.5319C8.65541 15.2044 8.18757 14.5026 8.04722 13.6605C7.90687 12.5845 8.28114 11.5553 8.79576 10.6664C9.02968 10.2453 9.31038 9.91785 9.35716 9.45001C9.35716 9.40323 9.40395 8.98218 9.40395 8.98218C9.77821 9.16931 10.1057 9.40323 10.4332 9.68393C11.3689 10.3857 12.3045 11.2278 12.6788 12.3974C12.9127 13.2395 12.7256 14.1284 12.211 14.8769ZM14.8776 12.4909C14.8308 12.2102 14.7841 11.8828 14.6905 11.6021C14.6905 11.6488 14.4566 11.836 14.4566 11.836C14.1759 12.0699 13.8952 12.1167 13.6145 12.2102C13.3805 12.257 13.1466 12.3506 12.9127 12.4442V12.4909C13.1934 13.333 13.0063 14.2687 12.4917 14.9705C12.3045 15.2044 12.1174 15.4383 11.8835 15.6254C11.8367 15.6722 11.7899 15.719 11.6963 15.7658C11.7431 15.8126 11.7899 15.8594 11.8367 15.8594C12.4917 15.3915 14.0355 13.567 14.5034 12.3974C14.5034 12.3974 14.5034 13.7541 12.0238 15.9529C12.3513 16.0933 12.632 16.1401 12.632 16.1401C12.8191 16.1401 13.0531 16.1401 13.2402 16.1401C13.8484 16.0465 14.363 15.6722 14.6437 15.064C15.018 14.2219 14.9712 13.333 14.8776 12.4909Z" fill="#357764"/>
<path d="M10.8076 25.9182C10.714 25.9182 10.5269 25.9182 10.5269 25.9182C10.2929 25.8714 10.1994 25.7311 10.1058 25.5907C10.1058 25.5439 10.059 25.5439 10.059 25.4971C9.91867 25.31 9.77832 25.1697 9.59119 25.1229C9.2637 25.0761 9.07657 24.7954 8.84265 24.5147C8.84265 24.5147 8.79587 24.4211 8.79587 24.3743C8.84265 24.3276 8.88944 24.3276 8.983 24.3276C9.2637 24.3276 9.49762 24.3276 9.77832 24.3276C11.2286 24.3276 12.3514 24.234 13.3807 24.0469H13.4274C13.4742 24.0469 13.6146 24.0001 13.6614 24.0936C13.7081 24.1872 13.7081 24.3276 13.6614 24.4211C13.4742 24.7486 13.2403 25.0761 12.7725 25.1697C12.5386 25.2164 12.445 25.4036 12.3982 25.5439C12.2111 25.9182 11.9304 25.965 11.6964 25.965H11.4157C11.1818 25.9182 10.9947 25.9182 10.8076 25.9182ZM10.5736 25.8246C10.5736 25.8246 10.8076 25.8246 10.8543 25.8246C11.0415 25.8246 11.2286 25.8246 11.4157 25.8246H11.6964C12.0239 25.8246 12.2111 25.7311 12.3046 25.4504C12.3514 25.31 12.4918 25.0761 12.7725 25.0293C13.1935 24.9357 13.4274 24.655 13.6146 24.3276C13.6614 24.234 13.6614 24.1404 13.6146 24.0936C13.6146 24.0469 13.5678 24.0469 13.4742 24.0936H13.4274C12.3982 24.2808 11.2754 24.3743 9.77832 24.3743C9.49762 24.3743 9.2637 24.3743 8.983 24.3743C8.93622 24.3743 8.93622 24.3743 8.93622 24.3743C8.93622 24.3743 8.93622 24.3743 8.93622 24.4211C9.12335 24.7018 9.31049 24.9357 9.59119 24.9825C9.87189 25.0293 10.0122 25.2164 10.1058 25.3568C10.1526 25.4036 10.1526 25.4036 10.1526 25.4504C10.2929 25.6843 10.3865 25.8246 10.5736 25.8246Z" fill="#626E73"/>
<path d="M8.93518 23.9065C8.8884 23.9065 8.84161 23.9065 8.79483 23.8597C8.74805 23.813 8.74805 23.7662 8.74805 23.6726C8.74805 23.6258 8.74805 23.5323 8.74805 23.4855C8.74805 23.3451 8.74805 23.2983 8.79483 23.2516C8.84161 23.2048 8.8884 23.2048 9.02875 23.2048C9.07553 23.2048 9.12232 23.2048 9.21588 23.2048C10.0112 23.2048 10.8533 23.158 11.8825 23.1112C12.3504 23.0644 12.9118 23.0176 13.52 22.9241C13.5668 22.9241 13.6135 22.9241 13.6603 22.9241C13.7071 22.9709 13.7071 23.0176 13.7071 23.0644C13.7071 23.158 13.7071 23.2048 13.7071 23.2516C13.7071 23.5323 13.7071 23.5323 13.4264 23.579C13.3796 23.579 13.3328 23.579 13.2393 23.6258C12.5843 23.7194 11.8825 23.813 10.9937 23.813C10.5726 23.813 10.1983 23.8597 9.87085 23.8597C9.77728 23.8597 9.7305 23.8597 9.63693 23.8597C9.35623 23.9065 9.1691 23.9065 8.93518 23.9065C8.98196 23.9065 8.98196 23.9065 8.93518 23.9065ZM8.93518 23.2983C8.8884 23.2983 8.8884 23.2983 8.8884 23.2983C8.8884 23.2983 8.8884 23.3919 8.8884 23.4855C8.8884 23.5323 8.8884 23.579 8.8884 23.6726C8.8884 23.7194 8.8884 23.7662 8.8884 23.7662C8.8884 23.7662 8.93518 23.7662 8.98196 23.7662C9.1691 23.7662 9.40302 23.7662 9.59015 23.7662C9.68372 23.7662 9.7305 23.7662 9.82407 23.7662C10.1516 23.7662 10.5726 23.7662 10.9469 23.7194C11.8358 23.6726 12.5375 23.6258 13.1925 23.5323C13.2861 23.5323 13.3328 23.5323 13.3796 23.4855C13.5668 23.4387 13.5668 23.4387 13.5668 23.2516C13.5668 23.2048 13.5668 23.1112 13.5668 23.0644C13.5668 23.0176 13.5668 22.9709 13.5668 22.9709C13.5668 22.9709 13.5668 22.9709 13.4732 22.9709C12.865 23.1112 12.3036 23.158 11.8358 23.158C10.8533 23.2516 9.96442 23.2516 9.1691 23.2516C9.07553 23.2516 9.02875 23.2516 8.98196 23.2516C8.98196 23.2983 8.93518 23.2983 8.93518 23.2983Z" fill="#626E73"/>
<path d="M8.93518 22.7836C8.79483 22.7836 8.74805 22.7368 8.74805 22.5964C8.74805 22.3625 8.74805 22.269 8.79483 22.2222C8.84161 22.1754 8.98196 22.1754 9.1691 22.1754C10.2451 22.1754 11.3211 22.1286 12.21 22.035C12.5843 21.9882 12.9586 21.9415 13.4264 21.8479C13.4732 21.8479 13.5668 21.8479 13.6135 21.8479C13.6603 21.8947 13.6603 21.9415 13.6603 21.9883C13.6603 22.0818 13.6603 22.1286 13.6603 22.1754C13.6603 22.4561 13.6603 22.4561 13.3796 22.5029C13.3328 22.5029 13.2393 22.5029 13.1457 22.5497C12.0697 22.7368 10.9937 22.7836 9.7305 22.7836H9.49658C9.35623 22.7836 9.1691 22.7836 8.93518 22.7836C8.98196 22.7836 8.93518 22.7836 8.93518 22.7836ZM9.07553 22.2222C8.98196 22.2222 8.8884 22.2222 8.84161 22.269C8.79483 22.3157 8.79483 22.4093 8.79483 22.5964C8.79483 22.69 8.79483 22.69 8.8884 22.69C9.07553 22.69 9.26267 22.69 9.4498 22.69H9.68372C10.9469 22.6432 12.0229 22.5964 13.0989 22.4561C13.1925 22.4561 13.2861 22.4561 13.3328 22.4093C13.52 22.4093 13.52 22.4093 13.52 22.1754C13.52 22.1286 13.52 22.035 13.52 21.9883C13.52 21.9415 13.52 21.8947 13.52 21.8947C13.52 21.8947 13.4732 21.8947 13.4264 21.8947C12.9586 21.9883 12.5843 22.035 12.21 22.0818C11.3211 22.1754 10.2451 22.2222 9.1691 22.2222C9.1691 22.2222 9.12231 22.2222 9.07553 22.2222Z" fill="#626E73"/>
<path d="M9.02946 21.7076C8.93589 21.7076 8.88911 21.7076 8.84232 21.6608C8.79554 21.614 8.79554 21.5205 8.79554 21.4269C8.79554 21.2865 8.79554 21.1462 8.79554 21.0058C8.79554 20.9123 8.79554 20.8187 8.79554 20.7251C8.79554 20.6316 8.79554 20.5848 8.70197 20.5848C8.23414 20.2573 8.00022 19.7895 8.00022 19.1345C8.047 18.2924 7.71952 17.5439 7.39203 16.7953C7.11133 16.1403 6.73706 15.5789 6.3628 14.9708L6.22244 14.7368C5.75461 14.0351 5.52069 13.193 5.42712 12.3041C5.42712 12.117 5.38034 11.9298 5.38034 11.6959V11.6491C5.38034 11.6023 5.38034 11.6023 5.38034 11.5556C5.38034 8.37427 7.95344 5.75439 11.1815 5.75439C12.4447 5.75439 13.6142 6.12866 14.6435 6.8772V6.92398L14.6903 6.8772L14.7371 6.92398H14.7838C15.2985 7.29825 15.7663 7.76609 16.1406 8.32749C16.9359 9.40351 17.2634 10.6667 17.1698 12.0702C17.123 13.0994 16.7487 14.0819 16.1406 15.0175C15.2985 16.2807 14.8306 17.3567 14.5967 18.4327C14.5499 18.6667 14.5499 18.9474 14.5499 19.2748C14.5499 19.7427 14.3628 20.1169 14.0353 20.3976C13.8482 20.538 13.8014 20.6783 13.8014 20.8655C13.8014 21.3333 13.8014 21.3333 13.3335 21.4269C12.5382 21.5205 11.6961 21.614 10.8072 21.6608C10.4797 21.6608 10.1523 21.6608 9.87156 21.6608C9.49729 21.7076 9.26338 21.7076 9.02946 21.7076ZM11.1347 5.84796C8.00022 5.84796 5.42712 8.42106 5.42712 11.5556C5.42712 11.6023 5.42712 11.6023 5.42712 11.6491V11.6959C5.42712 11.9298 5.42712 12.117 5.47391 12.3041C5.56747 13.193 5.84818 13.9883 6.26923 14.6901L6.40958 14.924C6.78385 15.4854 7.15812 16.0936 7.43882 16.7485C7.7663 17.4971 8.09379 18.2924 8.047 19.1345C8.00022 19.7427 8.23414 20.2105 8.70197 20.538C8.79554 20.5848 8.84232 20.6783 8.84232 20.7719C8.84232 20.8655 8.84232 20.959 8.84232 21.0526C8.84232 21.193 8.84232 21.3333 8.84232 21.4737C8.84232 21.5672 8.84232 21.614 8.88911 21.614C8.93589 21.614 8.98267 21.6608 9.02946 21.6608C9.26338 21.6608 9.49729 21.6608 9.73121 21.6608C10.0587 21.6608 10.3394 21.6608 10.6669 21.6608C11.5558 21.614 12.3979 21.5672 13.1932 21.4269C13.6142 21.3801 13.6142 21.3801 13.5675 20.959C13.5675 20.7251 13.6142 20.5848 13.8014 20.3976C14.1289 20.1169 14.316 19.7427 14.316 19.3216C14.316 18.9941 14.316 18.7134 14.3628 18.4795C14.5967 17.4035 15.0645 16.3275 15.9066 15.0643C16.5616 14.1287 16.8891 13.1462 16.9359 12.1637C17.0294 10.807 16.6552 9.59065 15.9066 8.51462C15.5324 8.00001 15.0645 7.53217 14.5967 7.1579H14.5499L14.5031 7.11112C13.5675 6.26901 12.3979 5.84796 11.1347 5.84796Z" fill="#626E73"/>
<path d="M8.6546 30.269H11.7423C12.2102 30.269 12.5844 30.3158 12.9119 30.4562C13.2394 30.5497 13.4733 30.7369 13.6604 30.924C13.8476 31.1111 13.9879 31.3451 14.0815 31.579C14.1751 31.8129 14.2218 32.0468 14.2218 32.3275C14.2218 32.5147 14.1751 32.7486 14.1283 32.9357C14.0815 33.1228 13.9411 33.31 13.8008 33.4503C13.6604 33.5907 13.5201 33.731 13.333 33.8246C13.1458 33.9182 12.9587 33.9649 12.7248 34.0117C12.7716 34.0117 12.9119 34.0117 13.099 34.0585C13.2862 34.1053 13.4733 34.1989 13.7072 34.3392C13.9411 34.4796 14.0815 34.6667 14.2686 34.9006C14.4558 35.1345 14.5025 35.462 14.5025 35.8363C14.5025 36.2106 14.4558 36.4913 14.3154 36.772C14.1751 37.0527 13.9879 37.2398 13.754 37.4269C13.5201 37.6141 13.2394 37.7544 12.9119 37.848C12.5844 37.9415 12.2102 37.9883 11.7891 37.9883H8.70139V30.269H8.6546ZM11.7423 33.7778C12.3973 33.7778 12.8651 33.6375 13.1926 33.3568C13.5201 33.0761 13.6604 32.7018 13.6604 32.1872C13.6604 31.9065 13.6137 31.6726 13.5201 31.4854C13.4265 31.2983 13.2862 31.1579 13.099 31.0176C12.9119 30.8772 12.7248 30.8304 12.4909 30.7837C12.2569 30.7369 12.023 30.6901 11.7423 30.6901H9.12244V33.7778H11.7423ZM11.7423 37.5673C12.4441 37.5673 12.9587 37.4269 13.3797 37.1462C13.754 36.8655 13.9879 36.3977 13.9879 35.8363C13.9879 35.5088 13.9411 35.2281 13.8008 35.041C13.6604 34.8538 13.4733 34.6667 13.2862 34.5263C13.0523 34.386 12.8183 34.3392 12.5844 34.2924C12.3037 34.2456 12.0698 34.2456 11.8359 34.2456H9.216V37.6141H11.7423V37.5673Z" fill="#626E73"/>
<path d="M19.9767 37.9885H19.5556V36.8189C19.4621 37.006 19.3685 37.1932 19.2282 37.3803C19.0878 37.5206 18.9475 37.661 18.7603 37.8013C18.5732 37.8949 18.3861 37.9885 18.1989 38.082C18.0118 38.1288 17.7779 38.1756 17.5439 38.1756C17.2165 38.1756 16.9358 38.1288 16.7018 38.0353C16.4679 37.9417 16.2808 37.8481 16.1404 37.7078C16.0001 37.5674 15.9065 37.4271 15.813 37.2867C15.7194 37.1464 15.6726 36.9592 15.6258 36.8189C15.579 36.6318 15.579 36.4914 15.579 36.3511C15.579 36.2107 15.579 36.0704 15.579 35.93V32.5148H16.0001V36.0236C16.0001 36.1639 16.0001 36.3511 16.0469 36.5382C16.0469 36.7253 16.1404 36.9592 16.234 37.1464C16.3276 37.3335 16.5147 37.5206 16.7018 37.6142C16.889 37.7078 17.2165 37.8013 17.5907 37.8013C17.9182 37.8013 18.1989 37.7546 18.4328 37.6142C18.6668 37.4739 18.9007 37.3335 19.041 37.1464C19.2282 36.9592 19.3217 36.6785 19.4153 36.3978C19.5089 36.1171 19.5556 35.7897 19.5556 35.4622V32.468H19.9767V37.9885Z" fill="#626E73"/>
<path d="M21.5208 31.3918V30.269H21.9419V31.3918H21.5208ZM21.5208 37.9883V32.4211H21.9419V37.9415H21.5208V37.9883Z" fill="#626E73"/>
<path d="M23.9529 30.269V37.9883H23.5318V30.269H23.9529Z" fill="#626E73"/>
<path d="M29.7541 36.772C29.5202 37.1931 29.1927 37.5206 28.8652 37.7545C28.5377 37.9884 28.1167 38.082 27.6021 38.082C27.181 38.082 26.8067 37.9884 26.526 37.848C26.2453 37.7077 25.9646 37.4738 25.7775 37.1931C25.5904 36.9124 25.45 36.6317 25.3564 36.2574C25.2629 35.9299 25.2161 35.5556 25.2161 35.1814C25.2161 34.7603 25.2629 34.3861 25.3564 34.0118C25.45 33.6375 25.5904 33.3568 25.8243 33.0761C26.0114 32.7954 26.2921 32.6083 26.5728 32.4679C26.9003 32.3276 27.2278 32.234 27.6488 32.234C27.8828 32.234 28.0699 32.2808 28.3038 32.3276C28.5377 32.3744 28.7249 32.4679 28.912 32.6083C29.0991 32.7018 29.2395 32.889 29.3798 33.0293C29.5202 33.2165 29.6137 33.4036 29.7073 33.5907V30.1755H30.1284V37.8948H29.7073V36.772H29.7541ZM27.6956 37.7545C28.0699 37.7545 28.3506 37.6609 28.5845 37.5206C28.8184 37.3802 29.0523 37.1931 29.2395 36.9592C29.4266 36.7252 29.5202 36.4445 29.6137 36.1638C29.7073 35.8363 29.7541 35.5556 29.7541 35.2282C29.7541 34.9007 29.7073 34.5732 29.6137 34.2925C29.5202 33.965 29.4266 33.7311 29.2395 33.4504C29.0523 33.2165 28.8652 33.0293 28.5845 32.889C28.3038 32.7486 28.0231 32.6551 27.6488 32.6551C27.2746 32.6551 26.9471 32.7486 26.7132 32.889C26.4792 33.0293 26.2453 33.2165 26.0582 33.4504C25.8711 33.6843 25.7775 33.965 25.6839 34.2925C25.5904 34.62 25.5904 34.9007 25.5904 35.2749C25.5904 35.6024 25.6371 35.9299 25.7307 36.2106C25.8243 36.5381 25.9178 36.772 26.105 37.0059C26.2921 37.2399 26.4793 37.427 26.76 37.5673C27.0407 37.7077 27.3214 37.7545 27.6956 37.7545Z" fill="#626E73"/>
<path d="M31.7657 31.3918V30.269H32.1867V31.3918H31.7657ZM31.7657 37.9883V32.4211H32.1867V37.9415H31.7657V37.9883Z" fill="#626E73"/>
<path d="M33.7305 32.4213H34.1515V33.5909C34.2451 33.4037 34.3387 33.2166 34.479 33.0294C34.6194 32.8891 34.7597 32.7487 34.9468 32.6084C35.134 32.5148 35.3211 32.4213 35.5082 32.3277C35.6954 32.2809 35.9293 32.2341 36.1632 32.2341C36.4907 32.2341 36.7714 32.2809 37.0053 32.3745C37.2392 32.468 37.4264 32.5616 37.5667 32.702C37.7071 32.8423 37.8006 32.9827 37.8942 33.123C37.9878 33.2634 38.0346 33.4505 38.0813 33.5909C38.1281 33.778 38.1281 33.9183 38.1281 34.0587C38.1281 34.199 38.1281 34.3394 38.1281 34.4797V37.8949H37.7071V34.3862C37.7071 34.2458 37.7071 34.0587 37.6603 33.8716C37.6603 33.6844 37.5667 33.4505 37.4732 33.2634C37.3796 33.0762 37.1925 32.8891 37.0053 32.7955C36.7714 32.6552 36.4907 32.6084 36.1164 32.6084C35.7889 32.6084 35.5082 32.6552 35.2743 32.7955C35.0404 32.8891 34.8065 33.0762 34.6661 33.2634C34.479 33.4505 34.3854 33.7312 34.2919 34.0119C34.1983 34.2926 34.1515 34.6201 34.1515 34.9476V37.9417H33.7305V32.4213Z" fill="#626E73"/>
<path d="M44.1167 32.4211V37.6609C44.1167 37.9884 44.0699 38.2691 44.0231 38.5498C43.9296 38.8305 43.836 39.1112 43.6489 39.2983C43.4617 39.5322 43.2278 39.7193 42.9003 39.8129C42.5728 39.9065 42.1986 40 41.7307 40C41.45 40 41.1693 39.9533 40.8886 39.9065C40.6079 39.8597 40.4208 39.7661 40.2337 39.6258C40.0465 39.4854 39.9062 39.2983 39.7658 39.1112C39.6255 38.8772 39.5787 38.6433 39.5787 38.3158H39.9998C39.9998 38.5498 40.0933 38.7837 40.1869 38.924C40.2805 39.1112 40.4208 39.2515 40.5612 39.3451C40.7015 39.4386 40.8886 39.5322 41.1226 39.579C41.3565 39.6258 41.5436 39.6726 41.7775 39.6726C42.1518 39.6726 42.4793 39.6258 42.7132 39.4854C42.9471 39.3451 43.181 39.2047 43.3214 39.0176C43.4617 38.8305 43.5553 38.6433 43.6489 38.4094C43.7424 38.1755 43.7424 37.9416 43.7424 37.7077V36.4913H43.6957C43.5085 36.9123 43.2278 37.193 42.9003 37.427C42.5728 37.6609 42.1518 37.7544 41.684 37.7544C41.2629 37.7544 40.9354 37.7077 40.6079 37.5673C40.3272 37.427 40.0465 37.2398 39.8594 37.0059C39.6723 36.772 39.5319 36.4913 39.4384 36.117C39.3448 35.7895 39.298 35.4153 39.298 35.041C39.298 34.6667 39.3448 34.3392 39.4384 34.0118C39.5319 33.6843 39.6723 33.4036 39.9062 33.1229C40.1401 32.8422 40.374 32.655 40.6547 32.5147C40.9354 32.3743 41.3097 32.2808 41.684 32.2808C42.105 32.2808 42.5261 32.3743 42.9003 32.6082C43.2746 32.8422 43.5553 33.1696 43.6957 33.5439V32.3743H44.1167V32.4211ZM41.684 32.655C41.3565 32.655 41.0758 32.7018 40.7951 32.8422C40.5144 32.9825 40.3272 33.1696 40.1869 33.4036C40.0465 33.6375 39.9062 33.8714 39.8126 34.1521C39.7191 34.4328 39.6723 34.7135 39.6723 35.041C39.6723 35.3685 39.7191 35.6492 39.8126 35.9767C39.9062 36.2574 39.9998 36.5381 40.1869 36.7252C40.374 36.9123 40.5612 37.0995 40.7951 37.2398C41.029 37.3802 41.3097 37.427 41.6372 37.427C41.9647 37.427 42.2922 37.3802 42.5261 37.2398C42.76 37.0995 42.9939 36.9123 43.1343 36.7252C43.3214 36.4913 43.415 36.2574 43.5085 35.9767C43.6021 35.696 43.6489 35.4153 43.6489 35.0878C43.6489 34.7603 43.6021 34.4796 43.5085 34.1989C43.415 33.9182 43.3214 33.6375 43.1343 33.4504C42.9471 33.2164 42.76 33.0761 42.5261 32.9357C42.2922 32.7486 42.0114 32.655 41.684 32.655Z" fill="#626E73"/>
<path d="M50.7604 32.7954H49.5908V36.6785C49.5908 36.9124 49.6375 37.0995 49.6843 37.1931C49.7311 37.3335 49.8247 37.427 49.9182 37.4738C50.0118 37.5206 50.1522 37.5674 50.2925 37.6142C50.4329 37.6142 50.62 37.6142 50.8071 37.6142V37.9884C50.62 37.9884 50.3861 37.9884 50.1989 37.9884C50.0118 37.9884 49.8247 37.8949 49.6843 37.8481C49.544 37.7545 49.4036 37.6142 49.3101 37.427C49.2165 37.2399 49.1697 37.006 49.2165 36.6785V32.7954H48.1873V32.4212H49.2165V30.6902H49.6375V32.4212H50.8539V32.7954H50.7604Z" fill="#626E73"/>
<path d="M51.3217 35.2282C51.3217 34.854 51.3685 34.4797 51.5089 34.1054C51.6024 33.7779 51.7896 33.4504 51.9767 33.1697C52.2106 32.889 52.4445 32.7019 52.772 32.5616C53.0995 32.4212 53.4738 32.3276 53.848 32.3276C54.2223 32.3276 54.6434 32.4212 54.9241 32.5616C55.2048 32.7019 55.4855 32.9358 55.7194 33.1697C55.9533 33.4504 56.0936 33.7311 56.1872 34.1054C56.2808 34.4329 56.3743 34.8072 56.3743 35.2282C56.3743 35.6025 56.3276 35.9768 56.1872 36.351C56.0936 36.7253 55.9065 37.006 55.7194 37.2867C55.4855 37.5674 55.2515 37.7545 54.9241 37.8949C54.5966 38.0352 54.2223 38.1288 53.848 38.1288C53.4738 38.1288 53.0527 38.0352 52.772 37.8949C52.4913 37.7545 52.2106 37.5206 51.9767 37.2867C51.7428 37.006 51.6024 36.7253 51.5089 36.351C51.4153 35.9768 51.3217 35.6025 51.3217 35.2282ZM51.7428 35.2282C51.7428 35.5557 51.7896 35.8832 51.8831 36.1639C51.9767 36.4914 52.117 36.7253 52.3042 36.9592C52.4913 37.1931 52.7252 37.3803 52.9591 37.5206C53.2398 37.661 53.5205 37.7077 53.8948 37.7077C54.2223 37.7077 54.5498 37.661 54.8305 37.5206C55.1112 37.3803 55.2983 37.1931 55.4855 36.9592C55.6726 36.7253 55.8129 36.4446 55.9065 36.1639C56.0001 35.8364 56.0469 35.5557 56.0469 35.2282C56.0469 34.9007 56.0001 34.5732 55.9065 34.2925C55.8129 33.9651 55.6726 33.7311 55.4855 33.4972C55.2983 33.2633 55.0644 33.0762 54.8305 32.9358C54.5498 32.7955 54.2691 32.7019 53.8948 32.7019C53.5673 32.7019 53.2398 32.7955 52.9591 32.9358C52.6784 33.0762 52.4913 33.2633 52.3042 33.4972C52.117 33.7311 51.9767 34.0118 51.8831 34.2925C51.7896 34.5732 51.7428 34.854 51.7428 35.2282Z" fill="#626E73"/>
<path d="M57.637 32.4211H58.0581V33.5439C58.1049 33.3568 58.1984 33.2164 58.292 33.0761C58.3856 32.9357 58.5259 32.7954 58.6663 32.655C58.8066 32.5147 58.9937 32.4679 59.1809 32.3743C59.368 32.3275 59.5552 32.2808 59.7891 32.2808C60.0698 32.2808 60.3037 32.3275 60.4908 32.3743C60.678 32.4211 60.8651 32.5147 61.0054 32.655C61.1458 32.7486 61.2394 32.8889 61.3329 33.0293C61.4265 33.1696 61.4733 33.31 61.4733 33.4504C61.6604 33.0761 61.8475 32.7486 62.1282 32.5615C62.4089 32.3743 62.7832 32.2808 63.2043 32.2808C63.4382 32.2808 63.6721 32.3275 63.906 32.3743C64.1399 32.4211 64.2803 32.5615 64.4674 32.7018C64.6078 32.8422 64.7481 33.0293 64.8417 33.31C64.9353 33.5439 64.982 33.8246 64.982 34.1521V37.9416H64.561V34.1521C64.561 33.7778 64.5142 33.5439 64.4206 33.31C64.3271 33.1229 64.1867 32.9357 64.0464 32.8422C63.906 32.7486 63.7657 32.655 63.6253 32.655C63.485 32.655 63.3446 32.6082 63.2978 32.6082C63.0639 32.6082 62.83 32.655 62.5961 32.7486C62.3622 32.8422 62.2218 32.9825 62.0347 33.1229C61.8943 33.31 61.754 33.4971 61.6604 33.7778C61.5668 34.0118 61.5201 34.3392 61.5201 34.6667V37.9416H61.099V34.1521C61.099 33.8246 61.0522 33.5439 60.9587 33.31C60.8651 33.1229 60.7247 32.9357 60.5844 32.8422C60.444 32.7486 60.3037 32.655 60.1633 32.655C60.023 32.6082 59.8826 32.6082 59.8359 32.6082C59.6487 32.6082 59.4616 32.655 59.2277 32.7486C59.0405 32.8422 58.8066 32.9357 58.6663 33.1229C58.4791 33.31 58.3388 33.4971 58.2452 33.7778C58.1516 34.0585 58.1049 34.3392 58.1049 34.7135V37.9884H57.6838V32.4211H57.637Z" fill="#626E73"/>
<path d="M66.1517 35.2282C66.1517 34.854 66.1985 34.4797 66.3389 34.1054C66.4324 33.7779 66.6196 33.4504 66.8067 33.1697C67.0406 32.889 67.2745 32.7019 67.602 32.5616C67.9295 32.4212 68.3038 32.3276 68.678 32.3276C69.0523 32.3276 69.4734 32.4212 69.7541 32.5616C70.0348 32.7019 70.3155 32.9358 70.5494 33.1697C70.7833 33.4504 70.9237 33.7311 71.0172 34.1054C71.1108 34.4329 71.2044 34.8072 71.2044 35.2282C71.2044 35.6025 71.1576 35.9768 71.0172 36.351C70.9237 36.7253 70.7365 37.006 70.5494 37.2867C70.3155 37.5674 70.0816 37.7545 69.7541 37.8949C69.4266 38.0352 69.0523 38.1288 68.678 38.1288C68.3038 38.1288 67.8827 38.0352 67.602 37.8949C67.3213 37.7545 67.0406 37.5206 66.8067 37.2867C66.5728 37.006 66.4324 36.7253 66.3389 36.351C66.1985 35.9768 66.1517 35.6025 66.1517 35.2282ZM66.5728 35.2282C66.5728 35.5557 66.6196 35.8832 66.7131 36.1639C66.8067 36.4914 66.9471 36.7253 67.1342 36.9592C67.3213 37.1931 67.5552 37.3803 67.7892 37.5206C68.0699 37.661 68.3506 37.7077 68.7248 37.7077C69.0523 37.7077 69.3798 37.661 69.6605 37.5206C69.9412 37.3803 70.1283 37.1931 70.3155 36.9592C70.5026 36.7253 70.643 36.4446 70.7365 36.1639C70.8301 35.8364 70.8769 35.5557 70.8769 35.2282C70.8769 34.9007 70.8301 34.5732 70.7365 34.2925C70.643 33.9651 70.5026 33.7311 70.3155 33.4972C70.1283 33.2633 69.8944 33.0762 69.6605 32.9358C69.3798 32.7955 69.0991 32.7019 68.7248 32.7019C68.3973 32.7019 68.0699 32.7955 67.7892 32.9358C67.5085 33.0762 67.3213 33.2633 67.1342 33.4972C66.9471 33.7311 66.8067 34.0118 66.7131 34.2925C66.6196 34.5732 66.5728 34.854 66.5728 35.2282Z" fill="#626E73"/>
<path d="M72.8419 33.6842C72.9355 33.4971 73.029 33.3567 73.1694 33.1696C73.3097 33.0292 73.4501 32.8889 73.6372 32.7485C73.8243 32.655 74.0583 32.5614 74.2922 32.4678C74.5261 32.4211 74.76 32.3743 75.0407 32.3743V32.7953C74.8068 32.7485 74.5729 32.7953 74.2922 32.8421C74.0115 32.9357 73.7308 33.076 73.4969 33.3099C73.4033 33.4035 73.3097 33.5439 73.2162 33.6374C73.1226 33.731 73.0758 33.8713 73.029 33.9649C72.9822 34.1053 72.9355 34.2456 72.8887 34.386C72.8419 34.5263 72.8419 34.7134 72.8419 34.9474V37.9883H72.4208V32.4211H72.8419V33.6842Z" fill="#626E73"/>
<path d="M76.0238 33.6842C76.1173 33.4971 76.2109 33.3567 76.3513 33.1696C76.4916 33.0292 76.632 32.8889 76.8191 32.7485C77.0062 32.655 77.2401 32.5614 77.4741 32.4678C77.708 32.4211 77.9419 32.3743 78.2226 32.3743V32.7953C77.9887 32.7485 77.7548 32.7953 77.4741 32.8421C77.1934 32.9357 76.9127 33.076 76.6787 33.3099C76.5852 33.4035 76.4916 33.5439 76.398 33.6374C76.3045 33.731 76.2577 33.8713 76.2109 33.9649C76.1641 34.1053 76.1173 34.2456 76.0706 34.386C76.0238 34.5263 76.0238 34.7134 76.0238 34.9474V37.9883H75.6027V32.4211H76.0238V33.6842Z" fill="#626E73"/>
<path d="M78.4562 35.2282C78.4562 34.854 78.503 34.4797 78.6433 34.1054C78.7369 33.7779 78.924 33.4504 79.1112 33.1697C79.2983 32.889 79.579 32.7019 79.9065 32.5616C80.234 32.4212 80.6083 32.3276 80.9825 32.3276C81.3568 32.3276 81.7778 32.4212 82.0585 32.5616C82.386 32.7019 82.6199 32.9358 82.8539 33.1697C83.0878 33.4037 83.2281 33.7311 83.3217 34.1054C83.4153 34.4329 83.5088 34.8072 83.5088 35.2282C83.5088 35.6025 83.4621 35.9768 83.3217 36.351C83.2281 36.7253 83.041 37.006 82.8539 37.2867C82.6199 37.5674 82.386 37.7545 82.0585 37.8949C81.7311 38.0352 81.3568 38.1288 80.9825 38.1288C80.6083 38.1288 80.1872 38.0352 79.9065 37.8949C79.579 37.7545 79.3451 37.5206 79.1112 37.2867C78.8773 37.006 78.7369 36.7253 78.6433 36.351C78.503 35.9768 78.4562 35.6025 78.4562 35.2282ZM78.8773 35.2282C78.8773 35.5557 78.924 35.8832 79.0176 36.1639C79.1112 36.4914 79.2515 36.7253 79.4387 36.9592C79.6258 37.1931 79.8597 37.3803 80.0936 37.5206C80.3743 37.661 80.655 37.7077 81.0293 37.7077C81.3568 37.7077 81.6843 37.661 81.965 37.5206C82.2457 37.3803 82.4328 37.1931 82.6199 36.9592C82.8071 36.7253 82.9474 36.4446 83.041 36.1639C83.1346 35.8364 83.1813 35.5557 83.1813 35.2282C83.1813 34.9007 83.1346 34.5732 83.041 34.2925C82.9474 33.9651 82.8071 33.7311 82.6199 33.4972C82.4328 33.2633 82.1989 33.0762 81.965 32.9358C81.6843 32.7955 81.4036 32.7019 81.0293 32.7019C80.7018 32.7019 80.3743 32.7955 80.0936 32.9358C79.8129 33.0762 79.6258 33.2633 79.4387 33.4972C79.2515 33.7311 79.1112 34.0118 79.0176 34.2925C78.924 34.5732 78.8773 34.854 78.8773 35.2282Z" fill="#626E73"/>
<path d="M86.0818 37.5206L87.6257 32.468H88.1871L89.7309 37.5206L91.2748 32.468H91.7426L89.9649 37.9885H89.4502L87.9532 32.9826L86.4093 37.9885H85.8947L84.1169 32.468H84.538L86.0818 37.5206Z" fill="#626E73"/>
<path d="M93.2864 31.392C93.2864 31.5324 93.2864 31.6727 93.2396 31.8131C93.1928 31.9534 93.1928 32.0938 93.146 32.1873C93.0993 32.3277 93.0057 32.4212 92.9121 32.5148C92.8185 32.6084 92.725 32.7019 92.5846 32.7487V32.3745C92.6782 32.3277 92.725 32.2809 92.7718 32.1873C92.8185 32.0938 92.8653 32.0002 92.8653 31.9066C92.9121 31.8131 92.9121 31.7195 92.9121 31.6259C92.9121 31.5324 92.9121 31.4388 92.9121 31.3452H92.6782V30.2224H93.2396V31.392H93.2864Z" fill="#626E73"/>
<path d="M94.6428 36.1172C94.6428 36.3979 94.7364 36.585 94.8299 36.8189C94.9235 37.0061 95.0638 37.1932 95.2042 37.3335C95.3445 37.4739 95.5317 37.5675 95.7656 37.661C95.9995 37.7546 96.2334 37.7546 96.4673 37.7546C96.6545 37.7546 96.8416 37.7546 97.0287 37.7078C97.2159 37.661 97.403 37.6142 97.5902 37.5207C97.7773 37.4271 97.9176 37.3335 98.0112 37.1464C98.1048 37.0061 98.1983 36.8189 98.1983 36.5382C98.1983 36.2107 98.1048 35.9768 97.9176 35.8365C97.7305 35.6961 97.4966 35.5558 97.2159 35.4622C96.9352 35.3686 96.6077 35.3218 96.2802 35.2751C95.9527 35.2283 95.6252 35.1347 95.3445 35.0411C95.0638 34.9476 94.8299 34.7604 94.6428 34.5733C94.4557 34.3862 94.3621 34.1055 94.3621 33.6844C94.3621 33.4037 94.4089 33.1698 94.5492 32.9827C94.6896 32.7955 94.8299 32.6552 95.0171 32.5616C95.2042 32.468 95.4381 32.3745 95.672 32.3277C95.9059 32.2809 96.1399 32.2341 96.3738 32.2341C96.6545 32.2341 96.9352 32.2809 97.1691 32.3277C97.403 32.3745 97.6369 32.5148 97.8241 32.6552C98.0112 32.7955 98.1516 32.9827 98.2451 33.2166C98.3387 33.4505 98.3855 33.7312 98.3855 34.0119H97.9644C97.9644 33.778 97.9176 33.5441 97.8241 33.3569C97.7305 33.1698 97.6369 33.0295 97.4966 32.9359C97.3562 32.8423 97.1691 32.7487 96.982 32.702C96.7948 32.6552 96.5609 32.6084 96.327 32.6084C96.1399 32.6084 95.9527 32.6084 95.7656 32.6552C95.5785 32.702 95.3913 32.7487 95.251 32.8423C95.1106 32.9359 94.9703 33.0295 94.8767 33.1698C94.7831 33.3102 94.7364 33.4505 94.7364 33.6844C94.7364 33.9183 94.7831 34.1055 94.8767 34.2458C94.9703 34.3862 95.1106 34.4797 95.2978 34.5733C95.4849 34.6669 95.672 34.7137 95.9059 34.7604C96.1399 34.8072 96.327 34.854 96.5609 34.9008C96.8416 34.9476 97.0755 34.9944 97.3095 35.0879C97.5434 35.1347 97.7773 35.2283 97.9176 35.3686C98.058 35.509 98.2451 35.6493 98.3387 35.8365C98.4323 36.0236 98.479 36.2575 98.479 36.5382C98.479 36.8189 98.4323 37.0996 98.2919 37.2868C98.1516 37.4739 97.9644 37.6142 97.7773 37.7546C97.5902 37.8949 97.3562 37.9417 97.0755 37.9885C96.8416 38.0353 96.5609 38.0353 96.327 38.0353C95.9995 38.0353 95.7188 37.9885 95.4381 37.8949C95.1574 37.8014 94.9235 37.7078 94.7364 37.5207C94.5492 37.3335 94.3621 37.1464 94.2685 36.9125C94.175 36.6786 94.0814 36.3979 94.0814 36.0704H94.6428V36.1172Z" fill="#626E73"/>
<path d="M103.064 32.4211H103.485V33.5439C103.532 33.3568 103.626 33.2164 103.719 33.0761C103.813 32.9357 103.953 32.7954 104.093 32.655C104.234 32.5615 104.421 32.4679 104.608 32.3743C104.795 32.3275 104.982 32.2808 105.216 32.2808C105.497 32.2808 105.731 32.3275 105.918 32.3743C106.105 32.4211 106.292 32.5147 106.433 32.655C106.573 32.7954 106.667 32.8889 106.76 33.0293C106.854 33.1696 106.9 33.31 106.9 33.4504C107.088 33.0761 107.275 32.7486 107.555 32.5615C107.836 32.3743 108.21 32.2808 108.631 32.2808C108.865 32.2808 109.099 32.3275 109.333 32.3743C109.567 32.4679 109.707 32.5615 109.895 32.7018C110.035 32.8422 110.175 33.0293 110.269 33.31C110.362 33.5439 110.409 33.8246 110.409 34.1521V37.9416H109.988V34.1521C109.988 33.7778 109.941 33.5439 109.848 33.31C109.754 33.1229 109.614 32.9357 109.474 32.8422C109.333 32.7486 109.193 32.655 109.053 32.655C108.912 32.6082 108.772 32.6082 108.725 32.6082C108.491 32.6082 108.257 32.655 108.023 32.7486C107.789 32.8422 107.649 32.9825 107.462 33.1229C107.322 33.31 107.181 33.4971 107.088 33.7778C106.994 34.0118 106.947 34.3392 106.947 34.6667V37.9416H106.526V34.1521C106.526 33.8246 106.479 33.5439 106.386 33.31C106.292 33.1229 106.152 32.9357 106.012 32.8422C105.871 32.7486 105.731 32.655 105.591 32.655C105.45 32.6082 105.31 32.6082 105.263 32.6082C105.076 32.6082 104.889 32.655 104.655 32.7486C104.468 32.8422 104.234 32.9357 104.093 33.1229C103.906 33.31 103.766 33.4971 103.672 33.7778C103.579 34.0585 103.532 34.3392 103.532 34.7135V37.9884H103.111V32.4211H103.064Z" fill="#626E73"/>
<path d="M115.509 36.8656C115.415 37.0527 115.322 37.1931 115.228 37.3334C115.088 37.4738 114.947 37.6141 114.76 37.7077C114.573 37.8012 114.386 37.8948 114.152 37.9884C113.918 38.0352 113.684 38.082 113.404 38.082C112.795 38.082 112.374 37.9416 112.047 37.7077C111.719 37.4738 111.579 37.0527 111.579 36.5381C111.579 36.2106 111.626 35.9299 111.766 35.7428C111.907 35.5556 112.047 35.3685 112.234 35.2749C112.421 35.1814 112.655 35.0878 112.889 35.041C113.123 34.9942 113.357 34.9475 113.591 34.9475L114.246 34.9007C114.526 34.9007 114.76 34.8539 114.947 34.8071C115.135 34.7603 115.228 34.7135 115.322 34.62C115.415 34.5264 115.462 34.4328 115.462 34.2925C115.462 34.1521 115.509 34.0118 115.509 33.8246C115.509 33.6843 115.462 33.5439 115.415 33.4036C115.369 33.2632 115.275 33.1697 115.135 33.0761C114.994 32.9825 114.854 32.889 114.667 32.8422C114.48 32.7954 114.246 32.7486 113.965 32.7486C113.45 32.7486 113.076 32.889 112.749 33.1229C112.421 33.3568 112.281 33.7311 112.234 34.2457H111.813C111.86 33.6375 112.047 33.1697 112.421 32.889C112.795 32.6083 113.31 32.4211 113.965 32.4211C114.62 32.4211 115.135 32.5615 115.415 32.7954C115.743 33.0761 115.883 33.4036 115.883 33.8246V36.9591C115.883 37.0527 115.883 37.0995 115.883 37.1931C115.883 37.2866 115.883 37.3334 115.93 37.427C115.977 37.5205 115.977 37.5206 116.023 37.5673C116.07 37.6141 116.164 37.6141 116.257 37.6141C116.351 37.6141 116.445 37.6141 116.538 37.5673V37.8948C116.445 37.9416 116.304 37.9416 116.211 37.9416C116.023 37.9416 115.93 37.9416 115.836 37.8948C115.743 37.848 115.649 37.8012 115.602 37.7077C115.556 37.6141 115.509 37.5673 115.509 37.4738C115.509 37.3802 115.462 37.2866 115.462 37.1463V36.8656H115.509ZM115.509 34.8071C115.415 34.9475 115.275 34.9942 115.041 35.041C114.854 35.0878 114.62 35.1346 114.339 35.1346L113.638 35.1814C113.45 35.1814 113.216 35.2282 113.029 35.2749C112.842 35.3217 112.655 35.3685 112.468 35.4621C112.328 35.5556 112.187 35.696 112.094 35.8363C112 35.9767 111.953 36.2106 111.953 36.4445C111.953 36.8656 112.094 37.1463 112.328 37.3334C112.608 37.5206 112.936 37.6141 113.404 37.6141C113.871 37.6141 114.246 37.5205 114.526 37.3802C114.807 37.1931 114.994 37.0059 115.135 36.8188C115.275 36.5849 115.369 36.3977 115.415 36.1638C115.462 35.9767 115.462 35.8363 115.462 35.7428V34.8071H115.509Z" fill="#626E73"/>
<path d="M117.848 33.6842C117.941 33.4971 118.035 33.3567 118.175 33.1696C118.316 33.0292 118.456 32.8889 118.643 32.7485C118.83 32.655 119.064 32.5614 119.298 32.4678C119.532 32.4211 119.766 32.3743 120.047 32.3743V32.7953C119.813 32.7485 119.579 32.7953 119.298 32.8421C119.017 32.9357 118.737 33.076 118.503 33.3099C118.409 33.4035 118.316 33.5439 118.222 33.6374C118.129 33.731 118.082 33.8713 118.035 33.9649C117.988 34.1053 117.941 34.2456 117.895 34.386C117.848 34.5263 117.848 34.7134 117.848 34.9474V37.9883H117.427V32.4211H117.848V33.6842Z" fill="#626E73"/>
<path d="M120.702 30.269H121.123V35.3685L124.538 32.4211H125.146L122.713 34.4796L125.333 37.9415H124.772L122.433 34.7603L121.169 35.8363V37.9415H120.702V30.269Z" fill="#626E73"/>
<path d="M125.894 35.275V35.3218C125.894 35.6493 125.941 35.9768 126.035 36.2575C126.128 36.5382 126.269 36.8189 126.409 37.0528C126.596 37.2867 126.783 37.4738 127.064 37.5674C127.298 37.7077 127.625 37.7545 127.953 37.7545C128.514 37.7545 128.935 37.6142 129.263 37.3335C129.59 37.0528 129.824 36.6317 129.918 36.1171H130.339C130.198 36.7721 129.965 37.2399 129.543 37.6142C129.122 37.9417 128.608 38.1288 127.953 38.1288C127.532 38.1288 127.204 38.0352 126.877 37.8949C126.549 37.7545 126.315 37.5674 126.128 37.2867C125.941 37.0528 125.754 36.7253 125.66 36.3978C125.567 36.0703 125.52 35.6961 125.52 35.275C125.52 34.9007 125.567 34.5265 125.66 34.1522C125.754 33.7779 125.941 33.4972 126.128 33.2165C126.315 32.9358 126.596 32.7487 126.924 32.5616C127.251 32.4212 127.625 32.3276 128.046 32.3276C128.421 32.3276 128.795 32.4212 129.076 32.5616C129.356 32.7019 129.637 32.889 129.824 33.1697C130.011 33.4037 130.198 33.6844 130.292 34.0118C130.386 34.3393 130.432 34.6668 130.432 35.0411C130.432 35.0879 130.432 35.1346 130.432 35.1814C130.432 35.2282 130.432 35.275 130.432 35.275H125.894ZM129.965 34.9007C129.965 34.62 129.918 34.2925 129.824 34.0586C129.731 33.8247 129.59 33.544 129.45 33.3569C129.263 33.1697 129.076 32.9826 128.842 32.889C128.608 32.7487 128.327 32.7019 128 32.7019C127.672 32.7019 127.391 32.7487 127.111 32.889C126.877 33.0294 126.643 33.1697 126.456 33.4037C126.269 33.5908 126.128 33.8247 126.035 34.1054C125.941 34.3861 125.894 34.6668 125.848 34.9475H129.965V34.9007Z" fill="#626E73"/>
<path d="M133.614 32.7954H132.397V36.6785C132.397 36.9124 132.444 37.0995 132.491 37.1931C132.538 37.2867 132.631 37.427 132.725 37.4738C132.818 37.5206 132.959 37.5674 133.099 37.6142C133.239 37.6142 133.427 37.6142 133.614 37.6142V37.9884C133.427 37.9884 133.193 37.9884 133.005 37.9884C132.818 37.9884 132.631 37.8949 132.491 37.8481C132.351 37.7545 132.21 37.6142 132.117 37.427C132.023 37.2399 131.976 37.006 132.023 36.6785V32.7954H130.994V32.4212H132.023V30.6902H132.444V32.4212H133.66V32.7954H133.614Z" fill="#626E73"/>
<path d="M134.783 36.1172C134.783 36.3979 134.877 36.585 134.971 36.8189C135.064 37.0061 135.205 37.1932 135.345 37.3335C135.485 37.4739 135.672 37.5675 135.906 37.661C136.14 37.7546 136.374 37.7546 136.608 37.7546C136.795 37.7546 136.982 37.7546 137.169 37.7078C137.357 37.661 137.544 37.6142 137.731 37.5207C137.918 37.4271 138.058 37.3335 138.152 37.1464C138.245 37.0061 138.339 36.8189 138.339 36.5382C138.339 36.2107 138.245 35.9768 138.058 35.8365C137.871 35.6961 137.637 35.5558 137.357 35.4622C137.076 35.3686 136.748 35.3218 136.421 35.2751C136.093 35.2283 135.766 35.1347 135.485 35.0411C135.205 34.9476 134.971 34.7604 134.783 34.5733C134.596 34.3862 134.503 34.1055 134.503 33.6844C134.503 33.4037 134.55 33.1698 134.69 32.9827C134.83 32.7955 134.971 32.6552 135.158 32.5616C135.345 32.468 135.579 32.3745 135.813 32.3277C136.047 32.2809 136.281 32.2341 136.514 32.2341C136.795 32.2341 137.076 32.2809 137.31 32.3277C137.544 32.3745 137.778 32.5148 137.965 32.6552C138.152 32.7955 138.292 32.9827 138.386 33.2166C138.479 33.4505 138.526 33.7312 138.526 34.0119H138.105C138.105 33.778 138.058 33.5441 137.965 33.3569C137.871 33.1698 137.778 33.0295 137.637 32.9359C137.497 32.8423 137.31 32.7487 137.123 32.702C136.936 32.6552 136.702 32.6084 136.468 32.6084C136.281 32.6084 136.093 32.6084 135.906 32.6552C135.719 32.702 135.532 32.7487 135.392 32.8423C135.251 32.9359 135.111 33.0295 135.017 33.1698C134.924 33.3102 134.877 33.4505 134.877 33.6844C134.877 33.9183 134.924 34.1055 135.017 34.2458C135.111 34.3862 135.251 34.4797 135.438 34.5733C135.626 34.6669 135.813 34.7137 136.047 34.7604C136.281 34.8072 136.468 34.854 136.702 34.9008C136.982 34.9476 137.216 34.9944 137.45 35.0879C137.684 35.1347 137.918 35.2283 138.058 35.3686C138.199 35.509 138.386 35.6493 138.479 35.8365C138.573 36.0236 138.62 36.2575 138.62 36.5382C138.62 36.8189 138.573 37.0996 138.433 37.2868C138.292 37.4739 138.105 37.6142 137.918 37.7546C137.731 37.8949 137.497 37.9417 137.216 37.9885C136.982 38.0353 136.702 38.0353 136.468 38.0353C136.14 38.0353 135.859 37.9885 135.579 37.8949C135.298 37.8014 135.064 37.7078 134.877 37.5207C134.69 37.3335 134.503 37.1464 134.409 36.9125C134.316 36.6786 134.222 36.3979 134.222 36.0704H134.783V36.1172Z" fill="#626E73"/>
</svg>
